<svg id="eNCeWgKHp3t1" xmlns="http://www.w3.org/2000/svg" xmlns:xlink="http://www.w3.org/1999/xlink" viewBox="20 135 440 315" shape-rendering="geometricPrecision" text-rendering="geometricPrecision"><line x1="0" y1="104.75" x2="0" y2="-104.37" transform="matrix(.981628 0.190809-.25493 1.3115 54.073977 304.350916)" fill="none" stroke="#3f5787" stroke-width="3"/><line x1="0" y1="106.5" x2="0" y2="-106" transform="matrix(.981628-.190809 0.25493 1.3115 422.157269 277.762818)" fill="none" stroke="#3f5787" stroke-width="3"/><line x1="-0.282852" y1="-44.08" x2="0.282852" y2="45.08" transform="matrix(.9979 0.064775-.199285 3.070107 173.276789 277.443096)" fill="none" stroke="#3f5787"/><line x1="-0.282852" y1="-45.08" x2="0.282852" y2="46.08" transform="matrix(.99863-.052336 0.161015 3.072352 296.461888 298.71778)" fill="none" stroke="#3f5787"/><line x1="-58.75" y1="0" x2="54" y2="0" transform="matrix(1.225596-.216106-.173648-.984808 98.53214 427.955215)" fill="none" stroke="#3f5787" stroke-width="3"/><line x1="-61" y1="0" x2="57.984679" y2="0" transform="matrix(.859093-.229089-.25766-.966236 131.996624 154.162047)" fill="none" stroke="#3f5787" stroke-width="3"/><line x1="-57.984679" y1="0" x2="57.984679" y2="0" transform="matrix(1.225596-.216106-.173648-.984808 377.699106 428.718445)" fill="none" stroke="#3f5787" stroke-width="3"/><line x1="-57.984679" y1="0" x2="57.984679" y2="0" transform="matrix(.914918-.1692 0.181851 0.983326 341.891014 149.809386)" fill="none" stroke="#3f5787" stroke-width="3"/><line x1="-57.984679" y1="0" x2="57.984679" y2="0" transform="matrix(1.225596 0.216106-.173648 0.984808 235.567502 428.704534)" fill="none" stroke="#3f5787" stroke-width="3"/><line x1="-54" y1="0" x2="57.984679" y2="0" transform="matrix(.958649 0.169036-.173648 0.984808 233.057925 150.028113)" fill="none" stroke="#3f5787" stroke-width="3"/></svg>